<svg xmlns="http://www.w3.org/2000/svg" width="63.473" height="70.102" viewBox="0 0 63.473 70.102">
  <g id="atom" transform="translate(-24.208)">
    <path id="Path_12492" data-name="Path 12492" d="M82.883,37.032q-.946-1.226-2.045-2.449.754-.875,1.432-1.751c4.657-6.039,5.98-11.517,3.723-15.425s-7.661-5.5-15.22-4.488q-1.2.16-2.437.4-.422-1.233-.894-2.385C64.54,3.884,60.457,0,55.945,0s-8.6,3.884-11.5,10.937q-.473,1.149-.894,2.385-1.24-.241-2.437-.4c-7.558-1.014-12.964.58-15.22,4.488s-.934,9.386,3.723,15.425q.676.876,1.432,1.751-1.1,1.222-2.045,2.449c-4.657,6.039-5.98,11.517-3.723,15.425,1.813,3.14,5.658,4.786,11.02,4.786a31.687,31.687,0,0,0,4.2-.3q1.435-.193,2.936-.5c.314.943.65,1.852,1.008,2.723,2.9,7.053,6.984,10.937,11.5,10.937s8.6-3.884,11.5-10.937c.358-.871.694-1.781,1.008-2.723q1.5.309,2.936.5a31.686,31.686,0,0,0,4.2.3c5.362,0,9.207-1.646,11.02-4.786C88.863,48.549,87.54,43.071,82.883,37.032ZM75,16.721c3.755,0,6.408.953,7.439,2.739,1.349,2.337.1,6.3-3.419,10.863q-.5.653-1.057,1.306a67.353,67.353,0,0,0-6.9-5.7A65.856,65.856,0,0,0,69.5,17.275,30.6,30.6,0,0,1,75,16.721ZM61.4,44.908c-1.846,1.066-3.669,2.022-5.451,2.872-1.784-.851-3.607-1.806-5.454-2.872-2.038-1.177-3.988-2.422-5.828-3.716-.154-1.965-.238-4.015-.238-6.141,0-2.382.1-4.669.3-6.846,1.641-1.127,3.364-2.214,5.156-3.249,2.059-1.189,4.088-2.24,6.066-3.161,1.978.921,4.007,1.972,6.066,3.161,1.792,1.034,3.515,2.122,5.156,3.249.192,2.177.3,4.464.3,6.846,0,2.126-.084,4.177-.238,6.141-1.84,1.294-3.79,2.539-5.828,3.716Zm5.2,1.645c-.275,1.748-.609,3.4-.992,4.957-1.523-.443-3.111-.978-4.748-1.609q1.3-.69,2.592-1.435Q65.06,47.536,66.6,46.552ZM51.03,49.9c-1.637.631-3.224,1.166-4.748,1.609-.383-1.552-.717-3.208-.992-4.956q1.538.982,3.148,1.912Q49.73,49.211,51.03,49.9ZM40.368,37.918c-1.3-1.078-2.519-2.175-3.644-3.283Q38.434,33,40.4,31.42q-.079,1.8-.08,3.631Q40.318,36.494,40.368,37.918ZM45.4,22.853q.414-2.455.976-4.645c1.459.408,2.98.9,4.549,1.486q-1.556.812-3.1,1.7Q46.594,22.109,45.4,22.853ZM60.96,19.694c1.569-.583,3.09-1.079,4.55-1.486q.558,2.186.976,4.645-1.19-.742-2.421-1.454Q62.518,20.506,60.96,19.694ZM71.491,31.42Q73.451,33,75.165,34.635c-1.125,1.108-2.343,2.206-3.644,3.283q.049-1.423.05-2.868,0-1.832-.08-3.631ZM55.945,4.108c2.971,0,6.127,3.779,8.383,10.173a65.778,65.778,0,0,0-8.383,3.015,65.8,65.8,0,0,0-8.383-3.015C49.818,7.887,52.974,4.108,55.945,4.108ZM29.454,19.46c1.031-1.786,3.684-2.739,7.439-2.739a30.592,30.592,0,0,1,5.492.554,65.837,65.837,0,0,0-1.557,8.651,67.353,67.353,0,0,0-6.9,5.7q-.552-.653-1.057-1.306C29.351,25.756,28.1,21.8,29.454,19.46ZM36.28,53.142c-3.755,0-6.408-.953-7.439-2.739-1.349-2.337-.1-6.3,3.419-10.863q.753-.976,1.615-1.953a65.486,65.486,0,0,0,6.873,5.839A67,67,0,0,0,42.3,52.488,31.317,31.317,0,0,1,36.28,53.142ZM55.945,65.994c-3.029,0-6.249-3.928-8.513-10.548A67.028,67.028,0,0,0,55.945,52.3a67.028,67.028,0,0,0,8.513,3.147C62.194,62.066,58.973,65.994,55.945,65.994ZM83.049,50.4c-1.519,2.632-6.559,3.453-13.459,2.085a66.98,66.98,0,0,0,1.553-9.061,65.461,65.461,0,0,0,6.873-5.839q.86.976,1.615,1.953C83.152,44.107,84.4,48.067,83.049,50.4Z" transform="translate(0)" fill="#ff4591"/>
    <circle id="Ellipse_340" data-name="Ellipse 340" cx="6.346" cy="6.346" r="6.346" transform="translate(49.598 28.705)" fill="#821ffd"/>
  </g>
</svg>
