<svg xmlns="http://www.w3.org/2000/svg" width="90.499" height="65.35" viewBox="0 0 90.499 65.35">
  <g id="book_1_" data-name="book (1)" transform="translate(-1 -6)">
    <path id="Path_12425" data-name="Path 12425" d="M5,14H19.851v5.94H5Z" transform="translate(7.881 19.192)" fill="#ff4591"/>
    <path id="Path_12426" data-name="Path 12426" d="M19.851,7V21.851H5V9.97A2.97,2.97,0,0,1,7.97,7Z" transform="translate(7.881 4.94)" fill="#ff4591"/>
    <path id="Path_12427" data-name="Path 12427" d="M5,18H19.851v8.911H5Z" transform="translate(7.881 27.313)" fill="#ff4591"/>
    <path id="Path_12428" data-name="Path 12428" d="M12,11h8.911V28.821H12Z" transform="translate(22.24 13.206)" fill="#ff4591"/>
    <path id="Path_12429" data-name="Path 12429" d="M12,19h8.911v5.94H12Z" transform="translate(22.24 29.299)" fill="#ff4591"/>
    <path id="Path_12430" data-name="Path 12430" d="M12,5h8.911V16.881H12Z" transform="translate(22.24 1)" fill="#ff4591"/>
    <path id="Path_12431" data-name="Path 12431" d="M22,17H36.851V28.881H22Z" transform="translate(42.766 25.325)" fill="#ff4591"/>
    <path id="Path_12432" data-name="Path 12432" d="M36.851,7.97V34.7H22V5H33.881A2.97,2.97,0,0,1,36.851,7.97Z" transform="translate(42.766 1)" fill="#ff4591"/>
    <path id="Path_12433" data-name="Path 12433" d="M1,28.94a5.987,5.987,0,0,0,6.033,5.94H85.465A5.987,5.987,0,0,0,91.5,28.94V23H1Z" transform="translate(0 36.469)" fill="#821ffd"/>
    <path id="Path_12434" data-name="Path 12434" d="M17,7h8.911V18.881H17Z" transform="translate(32.348 4.94)" fill="#ff4591"/>
    <path id="Path_12435" data-name="Path 12435" d="M17,13h8.911V36.762H17Z" transform="translate(32.348 17.35)" fill="#ff4591"/>
  </g>
</svg>
