<svg id="coding_2_" data-name="coding (2)" xmlns="http://www.w3.org/2000/svg" width="67.919" height="65.729" viewBox="0 0 67.919 65.729">
  <path id="Path_5402" data-name="Path 5402" d="M149.684,442.959h-4.908V438.25H120.9v4.709H115.99a1.99,1.99,0,1,0,0,3.98h33.694a1.99,1.99,0,1,0,0-3.979Z" transform="translate(-98.878 -381.209)" fill="#821ffd"/>
  <path id="Path_5403" data-name="Path 5403" d="M0,352.23a3.984,3.984,0,0,0,3.98,3.98H63.939a3.984,3.984,0,0,0,3.98-3.98v-3.98H0Z" transform="translate(0 -303.148)" fill="#821ffd"/>
  <path id="Path_5404" data-name="Path 5404" d="M63.939,8.25H3.98A3.984,3.984,0,0,0,0,12.23V49.373H67.919V12.23A3.984,3.984,0,0,0,63.939,8.25ZM47.227,26.158a1.99,1.99,0,0,1-1.99,1.99H23.214a1.99,1.99,0,0,1,0-3.98H45.237A1.99,1.99,0,0,1,47.227,26.158ZM17.908,16.209h8.357a1.99,1.99,0,0,1,0,3.98H17.908a1.99,1.99,0,0,1,0-3.98ZM9.949,44.067a1.99,1.99,0,1,1,1.99-1.99A1.994,1.994,0,0,1,9.949,44.067Zm0-7.959a1.99,1.99,0,1,1,1.99-1.99A1.994,1.994,0,0,1,9.949,36.107Zm0-7.959a1.99,1.99,0,1,1,1.99-1.99A1.994,1.994,0,0,1,9.949,28.148Zm0-7.959a1.99,1.99,0,1,1,1.99-1.99A1.994,1.994,0,0,1,9.949,20.189ZM26.265,44.067H17.908a1.99,1.99,0,0,1,0-3.98h8.357a1.99,1.99,0,0,1,0,3.98ZM32.5,36.107H23.214a1.99,1.99,0,0,1,0-3.98H32.5a1.99,1.99,0,1,1,0,3.98Zm13.73,0H39.354a1.99,1.99,0,1,1,0-3.98H46.23a1.99,1.99,0,0,1,0,3.98Zm11.74,0H53.194a1.99,1.99,0,1,1,0-3.98H57.97a1.99,1.99,0,1,1,0,3.98Zm0-7.959H53.194a1.99,1.99,0,1,1,0-3.98H57.97a1.99,1.99,0,1,1,0,3.98Z" transform="translate(0 -8.25)" fill="#ff4591"/>
</svg>
