<svg xmlns="http://www.w3.org/2000/svg" xmlns:xlink="http://www.w3.org/1999/xlink" width="368.037" height="319.659" viewBox="0 0 368.037 319.659">
  <defs>
    <clipPath id="clip-path">
      <rect id="Rectangle_1562" data-name="Rectangle 1562" width="272.94" height="261.532" fill="none" stroke="#f5f7fc" stroke-width="2"/>
    </clipPath>
  </defs>
  <g id="Group_12696" data-name="Group 12696" transform="translate(-8389.181 -3918.142)">
    <g id="Group_12690" data-name="Group 12690" transform="translate(8443 3976.269)">
      <g id="Group_12689" data-name="Group 12689" transform="translate(0)" clip-path="url(#clip-path)">
        <path id="Path_12359" data-name="Path 12359" d="M0,130.766A130.766,130.766,0,1,1,130.766,261.532,130.766,130.766,0,0,1,0,130.766" fill="none" stroke="#f5f7fc" stroke-width="1.6"/>
        <path id="Path_12360" data-name="Path 12360" d="M133.105,22.927A112.034,112.034,0,1,0,245.14,134.961,112.162,112.162,0,0,0,133.105,22.927" transform="translate(-2.339 -2.65)" fill="#f5f7fc" stroke="#f5f7fc" stroke-width="2"/>
        <path id="Path_12361" data-name="Path 12361" d="M68.582,122.567a19.632,19.632,0,0,0-.281-6.919,14.378,14.378,0,0,0-2.924-5.744,27.153,27.153,0,0,0-5.849-5.161,71.471,71.471,0,0,0-9.065-5.076,187.689,187.689,0,0,1-16.739-9.2A59.288,59.288,0,0,1,21.207,80.282a34.86,34.86,0,0,1-7.392-12.415,35.913,35.913,0,0,1-1.272-15.878A35.848,35.848,0,0,1,17,38.093a33.09,33.09,0,0,1,9.231-10.257,41.306,41.306,0,0,1,13.219-6.3,55.135,55.135,0,0,1,16.505-1.9L58.281,0,74.087,1.876,71.725,21.788A49.439,49.439,0,0,1,86.6,28.113,37.368,37.368,0,0,1,103.251,52a49.726,49.726,0,0,1,.653,16.873L75.355,65.49q1.306-11.01-2.935-17.051T59.978,41.425a21.4,21.4,0,0,0-7.8.332,14.49,14.49,0,0,0-5.688,2.766,13.526,13.526,0,0,0-3.667,4.731,19.879,19.879,0,0,0-1.739,6.215,18.223,18.223,0,0,0,.259,6.264,13.456,13.456,0,0,0,2.8,5.5,27.183,27.183,0,0,0,5.9,5.165,91.612,91.612,0,0,0,9.423,5.445q9.154,4.718,16.565,9.41A60.011,60.011,0,0,1,88.484,97.523a33.692,33.692,0,0,1,8.669,28.25,36.022,36.022,0,0,1-4.534,14.164,32.733,32.733,0,0,1-9.27,10.159,39.929,39.929,0,0,1-13.291,6.055A59.554,59.554,0,0,1,53.47,157.9L51.3,176.165,35.6,174.3l2.155-18.17a66.76,66.76,0,0,1-15.43-5.458,42.305,42.305,0,0,1-12.642-9.55,37.845,37.845,0,0,1-7.932-14.2Q-.872,118.609.435,107.6l28.55,3.387a28.39,28.39,0,0,0,.538,11.089,18.333,18.333,0,0,0,4.062,7.555,17.806,17.806,0,0,0,6.529,4.5,30.516,30.516,0,0,0,7.828,2,25.493,25.493,0,0,0,8.291-.224,17,17,0,0,0,6.27-2.607,13.531,13.531,0,0,0,4.15-4.579,16.513,16.513,0,0,0,1.931-6.145" transform="translate(66.834 52.439) rotate(-8)" fill="#ff4591" stroke="#f5f7fc" stroke-width="2"/>
      </g>
    </g>
    <path id="Path_12362" data-name="Path 12362" d="M-67.457,3985.224l48.764,27.633" transform="translate(8458)" fill="none" stroke="#fff" stroke-linecap="round" stroke-width="2"/>
    <path id="Path_12367" data-name="Path 12367" d="M-18.693,3985.224l-48.764,27.633" transform="translate(8774.548)" fill="none" stroke="#fff" stroke-linecap="round" stroke-width="2"/>
    <path id="Path_12364" data-name="Path 12364" d="M3.006,3935.974l26.45,31.74" transform="translate(8461 0.962)" fill="none" stroke="#fff" stroke-linecap="round" stroke-width="2"/>
    <path id="Path_12366" data-name="Path 12366" d="M29.455,3935.974l-26.45,31.739" transform="translate(8652 0.962)" fill="none" stroke="#fff" stroke-linecap="round" stroke-width="2"/>
    <path id="Path_12365" data-name="Path 12365" d="M121.424,3915.776v33.663" transform="translate(8458.076 3.367)" fill="none" stroke="#fff" stroke-linecap="round" stroke-width="2"/>
  </g>
</svg>
