<svg id="headphones_1_" data-name="headphones (1)" xmlns="http://www.w3.org/2000/svg" width="57.77" height="65.729" viewBox="0 0 57.77 65.729">
  <g id="Group_10409" data-name="Group 10409" transform="translate(7.703 26.959)">
    <g id="Group_10408" data-name="Group 10408">
      <path id="Path_5432" data-name="Path 5432" d="M96.777,210A5.783,5.783,0,0,0,91,215.777v15.662a5.777,5.777,0,1,0,11.554,0V215.777A5.783,5.783,0,0,0,96.777,210Z" transform="translate(-91 -210)" fill="#821ffd"/>
    </g>
  </g>
  <g id="Group_10411" data-name="Group 10411" transform="translate(0 31.114)">
    <g id="Group_10410" data-name="Group 10410">
      <path id="Path_5433" data-name="Path 5433" d="M34.851,243.988a9.553,9.553,0,0,1,.164-1.622A5.765,5.765,0,0,0,31,247.839V255.8a5.765,5.765,0,0,0,4.015,5.473,9.553,9.553,0,0,1-.164-1.622Z" transform="translate(-31 -242.366)" fill="#ff4591"/>
    </g>
  </g>
  <g id="Group_10413" data-name="Group 10413" transform="translate(23.108 26.959)">
    <g id="Group_10412" data-name="Group 10412">
      <path id="Path_5434" data-name="Path 5434" d="M232.182,210a5.783,5.783,0,0,0-5.777,5.777v15.662a5.783,5.783,0,0,0,5.777,5.777,5.7,5.7,0,0,0,1.655-.271,5.765,5.765,0,0,1-5.506,4.122H222.2a5.777,5.777,0,1,0,0,3.851h6.132a9.64,9.64,0,0,0,9.628-9.628V215.777A5.783,5.783,0,0,0,232.182,210Z" transform="translate(-211 -210)" fill="#821ffd"/>
    </g>
  </g>
  <g id="Group_10415" data-name="Group 10415" transform="translate(53.755 31.114)">
    <g id="Group_10414" data-name="Group 10414">
      <path id="Path_5435" data-name="Path 5435" d="M449.722,242.366a9.554,9.554,0,0,1,.164,1.622V259.65a9.554,9.554,0,0,1-.164,1.622,5.765,5.765,0,0,0,4.015-5.473v-7.959A5.765,5.765,0,0,0,449.722,242.366Z" transform="translate(-449.722 -242.366)" fill="#ff4591"/>
    </g>
  </g>
  <g id="Group_10417" data-name="Group 10417">
    <g id="Group_10416" data-name="Group 10416">
      <path id="Path_5436" data-name="Path 5436" d="M59.885,0A28.917,28.917,0,0,0,31,28.885v.049a9.535,9.535,0,0,1,3.94-1.789,25,25,0,0,1,49.891,0,9.538,9.538,0,0,1,3.94,1.789v-.049A28.917,28.917,0,0,0,59.885,0Z" transform="translate(-31)" fill="#ff4591"/>
    </g>
  </g>
</svg>
