<svg xmlns="http://www.w3.org/2000/svg" width="65.839" height="65.376" viewBox="0 0 65.839 65.376">
  <g id="High_efficacy" transform="translate(-1.3 -1.354)">
    <path id="Path_12423" data-name="Path 12423" d="M62.974,49.663l-8.02-7.335a1.364,1.364,0,0,0-1.841,0l-8.02,7.336a1.571,1.571,0,0,0,1.06,2.73h2.3a1.2,1.2,0,0,1,1.2,1.2v8.541A1.168,1.168,0,0,0,50.825,63.3h6.224a1.168,1.168,0,0,0,1.168-1.168V53.59a1.2,1.2,0,0,1,1.2-1.2h2.5a1.571,1.571,0,0,0,1.059-2.73Z" transform="translate(3.655 3.43)" fill="#821ffd"/>
    <path id="Path_12424" data-name="Path 12424" d="M48.617,42.595l-2.774-4.053a2.083,2.083,0,0,1-.18-2.067,19.842,19.842,0,0,0,.778-1.887,2.088,2.088,0,0,1,1.591-1.335l4.828-.905A2.251,2.251,0,0,0,54.7,30.134V25.968a2.251,2.251,0,0,0-1.836-2.211l-4.828-.906a2.086,2.086,0,0,1-1.591-1.335,19.585,19.585,0,0,0-.779-1.888,2.085,2.085,0,0,1,.182-2.067l2.772-4.052a2.25,2.25,0,0,0-.267-2.862L45.4,7.7a2.252,2.252,0,0,0-2.861-.266L38.49,10.206a2.085,2.085,0,0,1-2.067.181,19.749,19.749,0,0,0-1.888-.78A2.086,2.086,0,0,1,33.2,8.017l-.906-4.829a2.25,2.25,0,0,0-2.211-1.835H25.915A2.25,2.25,0,0,0,23.7,3.188L22.8,8.017a2.087,2.087,0,0,1-1.336,1.591,19.566,19.566,0,0,0-1.887.78,2.087,2.087,0,0,1-2.067-.182L13.455,7.433a2.252,2.252,0,0,0-2.861.266L7.647,10.646a2.251,2.251,0,0,0-.266,2.861l2.773,4.053a2.087,2.087,0,0,1,.182,2.066,19.231,19.231,0,0,0-.781,1.889A2.084,2.084,0,0,1,7.965,22.85l-4.828.906A2.251,2.251,0,0,0,1.3,25.968v4.167a2.251,2.251,0,0,0,1.836,2.212l4.827.906a2.085,2.085,0,0,1,1.592,1.335,19.166,19.166,0,0,0,.781,1.888,2.087,2.087,0,0,1-.183,2.067l-2.77,4.052a2.25,2.25,0,0,0,.265,2.862L10.594,48.4a2.249,2.249,0,0,0,2.861.266L17.508,45.9a2.085,2.085,0,0,1,2.067-.181,19.524,19.524,0,0,0,1.888.779A2.088,2.088,0,0,1,22.8,48.086l.906,4.829a2.25,2.25,0,0,0,2.211,1.835h4.167a2.25,2.25,0,0,0,2.211-1.834l.906-4.829a2.088,2.088,0,0,1,1.335-1.591,19.429,19.429,0,0,0,1.888-.78,2.092,2.092,0,0,1,2.067.182l4.053,2.772A2.249,2.249,0,0,0,45.4,48.4l2.946-2.946A2.25,2.25,0,0,0,48.617,42.595ZM28,37.746a9.695,9.695,0,1,1,9.694-9.695A9.7,9.7,0,0,1,28,37.746Z" fill="#ff4591"/>
  </g>
</svg>
