<svg id="passion" xmlns="http://www.w3.org/2000/svg" width="70.007" height="70.007" viewBox="0 0 70.007 70.007">
  <path id="Path_12495" data-name="Path 12495" d="M68.7,25.487A35,35,0,1,0,39.306,69.743Z" fill="#ff4591"/>
  <path id="Path_12496" data-name="Path 12496" d="M290.965,132.172a35.025,35.025,0,0,0-1.31-9.516l-20.627-7.4L255.9,155.645l4.367,11.267A35.008,35.008,0,0,0,290.965,132.172Z" transform="translate(-220.958 -97.168)" fill="#ff6ea9"/>
  <path id="Path_12497" data-name="Path 12497" d="M225.454,77.913a11.4,11.4,0,0,0-9.413,4.961l-4.564,18.056,4.564,18.056L234.31,96.514a11.409,11.409,0,0,0-8.856-18.6Z" transform="translate(-181.038 -60.402)" fill="#fff"/>
  <path id="Path_12498" data-name="Path 12498" d="M64.279,77.913a11.409,11.409,0,0,0-8.856,18.6l18.269,22.472V82.874A11.4,11.4,0,0,0,64.279,77.913Z" transform="translate(-38.688 -60.402)" fill="#ffd0e3"/>
  <g id="Group_13096" data-name="Group 13096" transform="translate(19.886 23.215)">
    <rect id="Rectangle_1633" data-name="Rectangle 1633" width="2.282" height="2.282" transform="translate(0 4.564)" fill="#821ffd"/>
    <rect id="Rectangle_1634" data-name="Rectangle 1634" width="2.282" height="2.282" transform="translate(4.564 0)" fill="#821ffd"/>
  </g>
</svg>
