<svg xmlns="http://www.w3.org/2000/svg" xmlns:xlink="http://www.w3.org/1999/xlink" width="1339.331" height="400.336" viewBox="0 0 1339.331 400.336">
  <defs>
    <clipPath id="clip-path">
      <rect id="Rectangle_1559" data-name="Rectangle 1559" width="645" height="400" transform="translate(744 8069)" fill="#fff" stroke="#707070" stroke-width="1"/>
    </clipPath>
    <clipPath id="clip-path-2">
      <rect id="Rectangle_1561" data-name="Rectangle 1561" width="166" height="210" transform="translate(84.733 8298.074)" fill="#fff" stroke="#707070" stroke-width="1"/>
    </clipPath>
  </defs>
  <g id="Group_12843" data-name="Group 12843" transform="translate(-50.001 -5773.904)">
    <path id="Path_12271" data-name="Path 12271" d="M0,0H1339V400H0Z" transform="translate(50.332 5774.24)" fill="#ff4591"/>
    <g id="Mask_Group_134" data-name="Mask Group 134" transform="translate(0.001 -2295.095)" clip-path="url(#clip-path)">
      <g id="Group_12669" data-name="Group 12669" transform="translate(-900.204 129.075) rotate(-6)">
        <g id="Group_12668" data-name="Group 12668" transform="matrix(-0.951, -0.309, 0.309, -0.951, 1882.923, 8670.606)">
          <g id="Group_12667" data-name="Group 12667" transform="translate(4.129 0.003)">
            <path id="Path_12272" data-name="Path 12272" d="M0,166.5s17,2.072,29,8.07S69.614,205.956,75.612,205.5s27.69-4.616,27.69-4.616l-8.766-26.308s43.38-26.3,56.3-36S204.37,85.5,206.217,74.89s-1.386-23.074-6.463-27.229-23.535,4.155-23.535,4.155a23.073,23.073,0,0,0-4.155-18.924c-6.919-9.227-23.074-6-23.074-6s-1.382-15.229-8.766-18-24,5.537-24,5.537S111.211,1.512,105.179.13,82.075,8.9,82.075,8.9,18.993,56.315,2.377,64.16c0,0,4.66,15.579,5.894,51.442C8.764,129.928,0,166.5,0,166.5Z" transform="translate(648.524 0)" fill="#fff"/>
            <path id="Union_46" data-name="Union 46" d="M45.782,187.076c-11.651-3.382-27.51-8.387-30.09-11.253C11.541,171.212,0,134.291,0,134.291c31.684-12.857,43.263,17.229,43.38,17.534V0L181.62,57.153l-5.046,11.389-5.9,15.119-5.836,23.71-3.495,22.441-1.4,33.012-30.866-4.993s-46,30-58.678,32.771a28.361,28.361,0,0,1-6.07.624C56.724,191.224,49.422,188.613,45.782,187.076Z" transform="translate(695.983 14.901)" fill="none" stroke="#fff" stroke-width="2"/>
            <path id="Path_12275" data-name="Path 12275" d="M10.807,0c-.333.013-.542,1.3-1.322,3.242A57.943,57.943,0,0,1,5.773,10.61C2.484,16.236-.464,20.741.061,21.134c.452.346,4.228-3.583,7.636-9.415a27.445,27.445,0,0,0,3.3-8.041c.452-2.248.094-3.7-.188-3.677" transform="translate(753.94 14.433)" fill="#ff4591"/>
            <path id="Path_12276" data-name="Path 12276" d="M19.4.011c-.6-.311-4.21,6.318-9.308,13.941C5.041,21.635-.368,26.766.02,27.244c.35.512,6.7-4.125,11.91-12.047C17.169,7.361,19.89.245,19.4.011" transform="translate(776.028 23.398)" fill="#ff4591"/>
            <path id="Path_12277" data-name="Path 12277" d="M18.356,0C17.7-.16,15.643,7.826,10.541,16.439,5.524,25.1-.436,30.8.025,31.293c.32.456,7.192-4.71,12.435-13.732C17.767,8.581,18.91.058,18.356,0" transform="translate(806.703 50.043)" fill="#ff4591"/>
            <path id="Path_12278" data-name="Path 12278" d="M.277,24.918c.58.124,2.167-5.371,2.466-12.371C3.063,5.546,1.971-.068,1.382,0,.751.065.841,5.632.521,12.449.235,19.261-.345,24.8.277,24.918" transform="translate(803.153 82.725)" fill="#ff4591"/>
            <path id="Path_12279" data-name="Path 12279" d="M2.6,58.856S-4.328,42.705,4.439,37.629s19.384-3.694,19.384-3.694-.461-9.692,12-16.151,15.69,0,15.69,0S52.9,1.629,67.2.247,86.545,3.774,86.545,3.774l-6.42,9.543s8.31,16.927,1.847,24.312S64.9,44.087,64.9,44.087s2.824,14.995-5.4,19.171c-15.293,7.764-21.82-6.71-21.82-6.71S36.745,72.98,24.745,72.609A26.715,26.715,0,0,1,6.286,64.854Z" transform="translate(646.779 3.574)" fill="none" stroke="#fff" stroke-width="2"/>
            <path id="Path_12280" data-name="Path 12280" d="M13.646,23.114c.542-.269-1.723-5.891-5.5-12.307S.554-.328.059.018C-.457.368,2.5,5.581,6.227,11.933s6.86,11.463,7.418,11.181" transform="translate(670.8 37.008)" fill="#fff"/>
            <path id="Path_12281" data-name="Path 12281" d="M15.946,23.289c.533-.252-1.817-6.25-6.292-12.768C5.2,3.985.465-.383.038.027-.431.457,3.477,5.393,7.824,11.775c4.368,6.361,7.551,11.8,8.122,11.514" transform="translate(696.023 22.295)" fill="#fff"/>
            <path id="Path_12283" data-name="Path 12283" d="M5.976,0c-.149.047.269,2.052,1.156,5.627.93,3.566,2.082,8.775,3.3,15.234,1.25,6.459,2.325,14.218,3.1,22.87a243.323,243.323,0,0,1,.606,28.223,230.077,230.077,0,0,1-7.952,50.615C4.44,128.908,2.866,134,1.642,137.479.468,140.968-.12,142.935.02,142.99s1.007-1.8,2.432-5.213A153.432,153.432,0,0,0,7.7,123.009a206.408,206.408,0,0,0,8.66-50.961,223.672,223.672,0,0,0-.789-28.5,199.351,199.351,0,0,0-3.6-22.993A150.281,150.281,0,0,0,7.964,5.4C6.82,1.874,6.121-.046,5.976,0" transform="translate(585.584 28.899)" fill="#fff" stroke="#fff" stroke-width="1"/>
            <path id="Path_12284" data-name="Path 12284" d="M214.588,483.635s.832-1.715,2.333-5.1c1.51-3.443,3.716-8.468,6.6-15.029,5.759-13.263,14.193-32.694,25-57.594C270.088,355.96,301.106,284.118,339,196.33l-.853.533c9.756.452,18.928-3.788,27.4-8.4,8.532-4.7,16.786-10.166,25.847-14.3,8.95-4.547,19.111-5.6,29.409-6.843,10.289-1.216,20.8-2.12,31.453-3.046,42.638-3.524,87.818-6.3,134.863-8.924l-.09,0c18.378.584,38.261,1.22,58.434,1.868l.734.021.286-.661c9.014-20.63,12.794-43.832,11.7-67.065a219.522,219.522,0,0,0-14.342-69.048l-.213-.546-.614-.115c-11.77-2.176-24.427-4.513-37.156-6.864L565.187,5.438C551.7,2.81,537.949,1.8,524.478,1.245,497.445.012,470.8-.09,444.628.046S392.75.8,367.59,1.731q-37.741,1.331-73.766,4.023c-12,.857-23.825,2.014-35.484,3.289-11.663,1.536-23.1,2.572-34.362,5.7A59.849,59.849,0,0,0,209.1,23.334a125.521,125.521,0,0,0-12.64,11.083,273.457,273.457,0,0,0-21.7,24.465c-26.508,33.7-47.288,67.837-65.862,99.076C72.154,220.757,45.628,273.347,27.417,309.7,18.361,327.9,11.505,342.126,6.9,351.789s-6.9,14.8-6.9,14.8.7-1.224,1.915-3.681q1.856-3.763,5.392-10.921c4.8-9.628,11.829-23.74,20.882-41.9C46.635,273.863,73.365,221.4,110.257,158.76,128.895,127.6,149.742,93.538,176.2,60.034a271.34,271.34,0,0,1,21.59-24.26,123.162,123.162,0,0,1,12.469-10.9,57.854,57.854,0,0,1,14.385-8.289c10.661-2.948,22.4-4.07,33.918-5.554C270.191,9.777,282,8.638,293.977,7.793q35.93-2.694,73.689-3.942c25.143-.909,50.828-1.5,76.974-1.63s52.774,0,79.73,1.233c13.51.567,26.986,1.553,40.407,4.163q20.214,3.737,40.68,7.517c12.729,2.346,25.391,4.684,37.165,6.86l-.828-.661a217.629,217.629,0,0,1,14.193,68.276c1.084,22.968-2.645,45.816-11.48,66.083l1.024-.636c-20.174-.631-40.057-1.25-58.435-1.826H587c-47.062,2.666-92.242,5.49-134.914,9.082-10.669.943-21.18,1.86-31.512,3.1-5.17.584-10.285,1.254-15.37,2.218-5.153.776-9.974,2.781-14.589,4.829-9.236,4.245-17.507,9.748-25.945,14.419-8.378,4.586-17.277,8.647-26.427,8.229l-.619-.03-.239.559c-37.6,87.912-68.379,159.861-89.772,209.888C236.993,430.5,228.7,449.994,223.043,463.3c-2.777,6.6-4.906,11.663-6.36,15.127-1.425,3.421-2.095,5.2-2.095,5.2" transform="translate(0 19.609)" fill="#fff" stroke="#fff" stroke-width="1"/>
            <path id="Path_12285" data-name="Path 12285" d="M180.567,18.052c-.149-.137-2.184,2.018-6.083,5.631A116.334,116.334,0,0,1,156.55,37.206a115.9,115.9,0,0,1-30.437,13.177,113.059,113.059,0,0,1-40.3,3.532,113.052,113.052,0,0,1-38.82-11.441A115.968,115.968,0,0,1,19.759,23.53a116.426,116.426,0,0,1-14.9-16.8C1.753,2.409.183-.1.008,0A8.1,8.1,0,0,0,.959,1.936c.725,1.2,1.647,3.089,3.187,5.281a103.311,103.311,0,0,0,14.53,17.448A113.2,113.2,0,0,0,46.063,44.3,112.479,112.479,0,0,0,85.586,56.126a112.466,112.466,0,0,0,41.072-3.767,113.074,113.074,0,0,0,30.727-13.826,103.165,103.165,0,0,0,17.7-14.227c1.95-1.843,3.225-3.507,4.172-4.547a7.971,7.971,0,0,0,1.314-1.706" transform="translate(17.641 507.772)" fill="#263238"/>
            <path id="Path_12286" data-name="Path 12286" d="M17.96,47.807c.576-.213-2.965-11.091-7.909-24.29S.636-.214.061,0,3.03,11.09,7.97,24.293,17.384,48.02,17.96,47.807" transform="translate(319.755 167.534)" fill="#263238"/>
            <path id="Path_12287" data-name="Path 12287" d="M847.32,551.376c-2.606-5.5-204.265-515.674-294.3-536.654S181.889-2.046,127.278,10.192,12.173,41.452,12.173,41.452s-30.694,64.525,5.4,159.31l101.515,9.569s182.132,30.956,211.657,40.523,55.022,42.35,81.59,40.6L571.315,729.7s103.318,113.64,177.116,78.674,120.519-211.435,98.89-257" transform="matrix(0.966, 0.259, -0.259, 0.966, 892.525, 2.782)" fill="none" stroke="rgba(255,255,255,0.47)" stroke-width="2.5"/>
          </g>
          <rect id="Rectangle_1558" data-name="Rectangle 1558" width="1561.503" height="564.386" transform="translate(0 0)" fill="none"/>
        </g>
        <g id="Ellipse_326" data-name="Ellipse 326" transform="translate(1321.966 8319.186)" fill="none" stroke="#fff" stroke-width="2.5">
          <circle cx="10.346" cy="10.346" r="10.346" stroke="none"/>
          <circle cx="10.346" cy="10.346" r="9.096" fill="none"/>
        </g>
      </g>
    </g>
    <g id="Mask_Group_135" data-name="Mask Group 135" transform="translate(-34.731 -2334.17)" clip-path="url(#clip-path-2)">
      <g id="Group_12672" data-name="Group 12672" transform="translate(-215.404 7416.804) rotate(25)">
        <g id="Group_12671" data-name="Group 12671" transform="matrix(-0.951, -0.309, 0.309, -0.951, 1097.234, 1005.46)">
          <g id="Group_12670" data-name="Group 12670" transform="translate(2.769 0)">
            <path id="Path_12288" data-name="Path 12288" d="M0,111.667s11.4,1.39,19.451,5.412,27.237,21.048,31.259,20.739,18.571-3.1,18.571-3.1L63.4,117.079S92.5,99.438,101.161,92.938s35.9-35.594,37.142-42.712-.93-15.475-4.334-18.262-15.784,2.787-15.784,2.787A15.474,15.474,0,0,0,115.4,22.06c-4.641-6.188-15.475-4.023-15.475-4.023S99,7.823,94.043,5.967s-16.1,3.714-16.1,3.714S74.585,1.014,70.54.087s-15.5,5.879-15.5,5.879S12.738,37.769,1.594,43.03c0,0,3.126,10.448,3.953,34.5C5.878,87.138,0,111.667,0,111.667Z" transform="translate(434.942 4.471)" fill="#fff" opacity="0.45"/>
            <path id="Path_12289" data-name="Path 12289" d="M7.248,0c-.223.009-.363.873-.887,2.174A38.86,38.86,0,0,1,3.872,7.116C1.666,10.889-.311,13.91.041,14.174c.3.232,2.835-2.4,5.121-6.314A18.406,18.406,0,0,0,7.374,2.466C7.677.959,7.437-.017,7.248,0" transform="translate(505.641 14.151)" fill="#ff4591"/>
            <path id="Path_12290" data-name="Path 12290" d="M13.011.007c-.4-.209-2.824,4.237-6.243,9.35C3.381,14.51-.247,17.951.013,18.272c.235.343,4.495-2.767,7.988-8.08C11.514,4.937,13.34.164,13.011.007" transform="translate(520.455 20.163)" fill="#ff4591"/>
            <path id="Path_12291" data-name="Path 12291" d="M12.311,0c-.438-.109-1.82,5.247-5.241,11.023C3.7,16.836-.292,20.658.017,20.987c.215.306,4.824-3.159,8.34-9.21C11.916,5.755,12.683.039,12.311,0" transform="translate(541.028 38.033)" fill="#ff4591"/>
            <path id="Path_12292" data-name="Path 12292" d="M.186,16.712c.389.083,1.453-3.6,1.654-8.3S1.322-.045.927,0C.5.043.564,3.777.349,8.349c-.192,4.569-.581,8.283-.163,8.363" transform="translate(538.647 59.952)" fill="#ff4591"/>
            <path id="Path_12293" data-name="Path 12293" d="M1.741,39.473S-2.9,28.641,2.977,25.236s13-2.478,13-2.478-.309-6.5,8.048-10.832,10.523,0,10.523,0S35.478,1.092,45.071.165,58.043,2.531,58.043,2.531l-4.306,6.4s5.573,11.352,1.239,16.3-11.453,4.332-11.453,4.332S45.417,39.624,39.9,42.425c-10.257,5.207-14.634-4.5-14.634-4.5S24.643,48.945,16.6,48.7s-11.541-.6-11.541-.6Z" transform="translate(433.28 0)" fill="#fff" stroke="#fff" stroke-width="2"/>
            <path id="Path_12294" data-name="Path 12294" d="M15.579,21c.363-.18-1.156-3.951-3.691-8.254S.342-.227.01,0,8.1,9.237,10.6,13.5s4.6,7.688,4.975,7.5" transform="translate(443.456 23.797)" fill="#fff"/>
            <path id="Path_12295" data-name="Path 12295" d="M10.694,15.619c.358-.169-1.219-4.191-4.22-8.563C3.49,2.673.312-.257.026.018-.289.307,2.332,3.617,5.247,7.9s5.064,7.911,5.447,7.722" transform="translate(466.798 19.423)" fill="#fff"/>
            <path id="Path_12297" data-name="Path 12297" d="M4.008,0a18.683,18.683,0,0,0,.775,3.774C5.407,6.166,6.179,9.659,7,13.991c.838,4.332,1.559,9.536,2.08,15.338a163.188,163.188,0,0,1,.406,18.928A154.3,154.3,0,0,1,4.151,82.2c-1.173,4.251-2.229,7.668-3.05,10A19.579,19.579,0,0,0,.014,95.9a18.4,18.4,0,0,0,1.631-3.5,102.9,102.9,0,0,0,3.522-9.9A138.431,138.431,0,0,0,10.974,48.32a150.009,150.009,0,0,0-.529-19.114A133.7,133.7,0,0,0,8.027,13.785,100.788,100.788,0,0,0,5.341,3.62,19.137,19.137,0,0,0,4.008,0" transform="translate(392.731 23.852)" fill="#fff" stroke="#fff" stroke-width="1"/>
            <path id="Path_12298" data-name="Path 12298" d="M143.917,324.357s.558-1.15,1.565-3.419c1.013-2.309,2.492-5.679,4.426-10.079,3.862-8.895,9.519-21.927,16.768-38.626,14.462-33.5,35.265-81.685,60.679-140.561l-.572.358c6.543.3,12.694-2.541,18.376-5.63,5.722-3.153,11.258-6.818,17.335-9.593,6-3.05,12.817-3.757,19.724-4.589,6.9-.815,13.947-1.422,21.094-2.043,28.6-2.363,58.9-4.226,90.448-5.985l-.06,0c12.325.392,25.66.818,39.19,1.253l.492.014.192-.443a100.9,100.9,0,0,0,7.848-44.978A147.226,147.226,0,0,0,431.8,13.729l-.143-.366-.412-.077-24.919-4.6L379.051,3.647a182.337,182.337,0,0,0-27.3-2.812c-18.13-.827-36-.9-53.552-.8s-34.793.5-51.667,1.13q-25.311.893-49.472,2.7c-8.048.575-15.979,1.35-23.8,2.206-7.822,1.03-15.5,1.725-23.045,3.825a40.138,40.138,0,0,0-9.976,5.759,84.185,84.185,0,0,0-8.477,7.433A183.4,183.4,0,0,0,117.21,39.49c-17.778,22.6-31.714,45.5-44.171,66.447C48.391,148.054,30.6,183.324,18.388,207.7c-6.074,12.211-10.672,21.749-13.759,28.23S0,245.857,0,245.857s.466-.821,1.285-2.469q1.245-2.523,3.616-7.324c3.219-6.457,7.934-15.921,14-28.1,12.371-24.293,30.3-59.48,55.04-101.488,12.5-20.9,26.481-43.742,44.228-66.212a181.977,181.977,0,0,1,14.48-16.271,82.6,82.6,0,0,1,8.363-7.31,38.8,38.8,0,0,1,9.647-5.559c7.15-1.977,15.023-2.729,22.748-3.725,7.8-.841,15.715-1.605,23.749-2.172q24.1-1.807,49.421-2.644c16.863-.609,34.089-1,51.624-1.093s35.393,0,53.472.827a180.912,180.912,0,0,1,27.1,2.792l27.283,5.041c8.537,1.574,17.029,3.141,24.925,4.6l-.555-.443a145.956,145.956,0,0,1,9.519,45.79,99.547,99.547,0,0,1-7.7,44.32l.687-.426c-13.53-.423-26.865-.838-39.19-1.224h-.063c-31.563,1.788-61.863,3.682-90.482,6.091-7.155.632-14.2,1.247-21.134,2.08-3.468.392-6.9.841-10.308,1.488a38.551,38.551,0,0,0-9.785,3.239c-6.194,2.847-11.742,6.537-17.4,9.67-5.619,3.076-11.587,5.8-17.724,5.519l-.415-.02-.16.375c-25.22,58.96-45.859,107.213-60.207,140.764-7.124,16.751-12.686,29.823-16.479,38.749-1.863,4.429-3.29,7.822-4.266,10.145-.956,2.295-1.4,3.49-1.4,3.49" transform="translate(0 17.622)" fill="#fff" stroke="#fff" stroke-width="1"/>
            <path id="Path_12299" data-name="Path 12299" d="M121.1,12.107c-.1-.092-1.465,1.353-4.08,3.777a78.022,78.022,0,0,1-12.028,9.069,77.732,77.732,0,0,1-20.413,8.838A75.825,75.825,0,0,1,57.549,36.16a75.82,75.82,0,0,1-26.035-7.673A77.776,77.776,0,0,1,13.252,15.781,78.083,78.083,0,0,1,3.258,4.511C1.175,1.616.123-.069.005,0A5.435,5.435,0,0,0,.643,1.3c.486.807,1.1,2.071,2.137,3.542a69.287,69.287,0,0,0,9.745,11.7A75.922,75.922,0,0,0,30.893,29.711,75.435,75.435,0,0,0,57.4,37.642a75.427,75.427,0,0,0,27.546-2.526,75.835,75.835,0,0,0,20.608-9.273A69.189,69.189,0,0,0,117.421,16.3c1.307-1.236,2.163-2.352,2.8-3.05a5.346,5.346,0,0,0,.881-1.144" transform="translate(11.831 345.016)" fill="#263238"/>
            <path id="Path_12300" data-name="Path 12300" d="M12.045,32.063c.386-.143-1.988-7.439-5.3-16.291S.427-.144.041,0s1.991,7.436,5.3,16.291,6.314,15.913,6.7,15.77" transform="translate(214.449 116.83)" fill="#263238"/>
            <path id="Path_12301" data-name="Path 12301" d="M568.268,369.789C566.52,366.1,431.275,23.944,370.892,9.874S121.987-1.372,85.361,6.835,8.164,27.8,8.164,27.8s-20.586,43.274,3.62,106.844l68.082,6.417s122.15,20.761,141.951,27.177,36.9,28.4,54.719,27.23L383.161,489.387s69.292,76.215,118.786,52.764,80.828-141.8,66.322-172.362" transform="matrix(0.966, 0.259, -0.259, 0.966, 598.586, 6.336)" fill="none" stroke="#fff" stroke-width="2.5"/>
          </g>
          <rect id="Rectangle_1560" data-name="Rectangle 1560" width="1047.246" height="378.514" transform="translate(0 4.469)" fill="none"/>
        </g>
        <g id="Ellipse_327" data-name="Ellipse 327" transform="translate(722.4 765.524)" fill="none" stroke="#fff" stroke-width="2.5">
          <circle cx="6.939" cy="6.939" r="6.939" stroke="none"/>
          <circle cx="6.939" cy="6.939" r="5.689" fill="none"/>
        </g>
      </g>
    </g>
  </g>
</svg>
