<svg id="quality_4_" data-name="quality (4)" xmlns="http://www.w3.org/2000/svg" width="65.415" height="65.415" viewBox="0 0 65.415 65.415">
  <path id="Path_5405" data-name="Path 5405" d="M62.669,19.272l-6.678-4-1.5-6.228a5.738,5.738,0,0,0-6.032-4.383l-7.642.591L36.435,1.38a5.729,5.729,0,0,0-7.456,0L24.6,5.256,16.96,4.664A5.707,5.707,0,0,0,11,8.821l-2.21,6.87L2.746,19.27A5.725,5.725,0,0,0,.44,26.363l2.607,6.318L.442,39a5.72,5.72,0,0,0,2.3,7.091l6.672,3.968,1.51,6.257A5.738,5.738,0,0,0,16.96,60.7l7.559-.584,4.46,3.921a5.722,5.722,0,0,0,7.456,0l4.46-3.921,7.559.584a5.7,5.7,0,0,0,6.032-4.383l1.5-6.228,6.678-4A5.726,5.726,0,0,0,64.973,39l-2.607-6.316,2.609-6.32a5.724,5.724,0,0,0-2.306-7.089ZM32.707,53.788A21.081,21.081,0,1,1,53.788,32.707,21.1,21.1,0,0,1,32.707,53.788Z" transform="translate(0 0)" fill="#ff4591"/>
  <path id="Path_5406" data-name="Path 5406" d="M138.248,121A17.248,17.248,0,1,0,155.5,138.248,17.267,17.267,0,0,0,138.248,121Zm10.937,12.854-11.5,11.5a1.915,1.915,0,0,1-2.71,0l-7.666-7.666a1.916,1.916,0,1,1,2.71-2.71l6.311,6.311,10.144-10.144a1.916,1.916,0,1,1,2.71,2.71Z" transform="translate(-105.541 -105.541)" fill="#821ffd"/>
</svg>
