<svg xmlns="http://www.w3.org/2000/svg" width="64.028" height="65.192" viewBox="0 0 64.028 65.192">
  <g id="surface1" transform="translate(-0.5)">
    <path id="Path_12436" data-name="Path 12436" d="M119.162,164.487l-1.987-1.987H113v9.313h11.641v-6.985h-4.657A1.164,1.164,0,0,1,119.162,164.487Zm0,0" transform="translate(-102.023 -147.366)" fill="#ff4591"/>
    <path id="Path_12437" data-name="Path 12437" d="M123.3,467.652a5.152,5.152,0,1,1-5.152-5.152A5.153,5.153,0,0,1,123.3,467.652Zm0,0" transform="translate(-101.354 -418.759)" fill="#821ffd"/>
    <path id="Path_12438" data-name="Path 12438" d="M519.162,364.487l-1.987-1.987H513v9.313h11.641v-6.985h-4.657A1.164,1.164,0,0,1,519.162,364.487Zm0,0" transform="translate(-464.77 -328.74)" fill="#ff4591"/>
    <path id="Path_12439" data-name="Path 12439" d="M319.162,164.487l-1.987-1.987H313v9.313h11.641v-6.985h-4.657A1.164,1.164,0,0,1,319.162,164.487Zm0,0" transform="translate(-283.396 -147.366)" fill="#ff4591"/>
    <path id="Path_12440" data-name="Path 12440" d="M118.879,0H65.328A2.328,2.328,0,0,0,63,2.328V33.1a1.146,1.146,0,0,1,1.423.149L66.6,35.428a15.043,15.043,0,0,1,2.224-.92V31.432a1.164,1.164,0,0,1,1.164-1.164H76.97a1.164,1.164,0,0,1,1.164,1.164v3.077a15.042,15.042,0,0,1,2.224.92l2.174-2.175a1.165,1.165,0,0,1,1.646,0l4.94,4.94a1.165,1.165,0,0,1,0,1.646l-2.175,2.174a15.033,15.033,0,0,1,.92,2.224h3.077A1.164,1.164,0,0,1,92.1,45.4v5.821h26.775a2.328,2.328,0,0,0,2.328-2.328V2.328A2.328,2.328,0,0,0,118.879,0ZM74.641,2.328H76.97V4.657H74.641Zm-4.657,0h2.328V4.657H69.985Zm-4.657,0h2.328V4.657H65.328Zm16.3,23.283a1.164,1.164,0,0,1-1.164,1.164H66.492a1.164,1.164,0,0,1-1.164-1.164V13.97a1.164,1.164,0,0,1,1.164-1.164h5.821a1.164,1.164,0,0,1,.823.341l1.987,1.987h5.339A1.164,1.164,0,0,1,81.626,16.3Zm18.626,18.626A1.164,1.164,0,0,1,99.088,45.4H94.432V43.073h3.492V36.088H93.268a1.164,1.164,0,0,1-.823-.341L90.457,33.76h-3.01V31.432h3.492a1.164,1.164,0,0,1,.823.341L93.75,33.76h5.339a1.164,1.164,0,0,1,1.164,1.164Zm0-18.626a1.164,1.164,0,0,1-1.164,1.164H85.119a1.164,1.164,0,0,1-1.164-1.164V13.97a1.164,1.164,0,0,1,1.164-1.164h5.821a1.164,1.164,0,0,1,.823.341l1.987,1.987h5.339a1.164,1.164,0,0,1,1.164,1.164Zm18.626,18.626a1.164,1.164,0,0,1-1.164,1.164h-13.97a1.164,1.164,0,0,1-1.164-1.164V32.6a1.164,1.164,0,0,1,1.164-1.164h5.821a1.164,1.164,0,0,1,.823.341l1.987,1.987h5.339a1.164,1.164,0,0,1,1.164,1.164Zm0-18.626a1.164,1.164,0,0,1-1.164,1.164h-13.97a1.164,1.164,0,0,1-1.164-1.164V13.97a1.164,1.164,0,0,1,1.164-1.164h5.821a1.164,1.164,0,0,1,.823.341l1.987,1.987h5.339a1.164,1.164,0,0,1,1.164,1.164Zm0-16.3H65.328V6.985h53.551Zm0,0" transform="translate(-56.679)" fill="#ff4591"/>
    <path id="Path_12441" data-name="Path 12441" d="M29.182,363.1A12.748,12.748,0,0,0,27.82,359.8,1.164,1.164,0,0,1,28,358.39l1.97-1.969-3.294-3.294-1.969,1.97a1.165,1.165,0,0,1-1.414.179A12.746,12.746,0,0,0,20,353.914a1.164,1.164,0,0,1-.873-1.127V350H14.47v2.787a1.164,1.164,0,0,1-.873,1.127,12.748,12.748,0,0,0-3.292,1.362A1.165,1.165,0,0,1,8.89,355.1l-1.969-1.97-3.294,3.294L5.6,358.39a1.164,1.164,0,0,1,.179,1.414A12.707,12.707,0,0,0,4.414,363.1a1.164,1.164,0,0,1-1.127.873H.5v4.657H3.287a1.164,1.164,0,0,1,1.127.873,12.743,12.743,0,0,0,1.362,3.292,1.165,1.165,0,0,1-.179,1.414l-1.97,1.969,3.294,3.294L8.89,377.5a1.165,1.165,0,0,1,1.414-.179,12.748,12.748,0,0,0,3.292,1.362,1.164,1.164,0,0,1,.873,1.127V382.6h4.657v-2.787A1.164,1.164,0,0,1,20,378.682a12.746,12.746,0,0,0,3.292-1.362,1.164,1.164,0,0,1,1.414.179l1.969,1.97,3.294-3.294L28,374.206a1.165,1.165,0,0,1-.179-1.414,12.748,12.748,0,0,0,1.362-3.292,1.164,1.164,0,0,1,1.127-.873H33.1V363.97H30.309A1.164,1.164,0,0,1,29.182,363.1ZM16.8,374.447a8.149,8.149,0,1,1,8.149-8.149A8.149,8.149,0,0,1,16.8,374.447Zm0,0" transform="translate(0 -317.404)" fill="#821ffd"/>
    <path id="Path_12442" data-name="Path 12442" d="M519.162,164.487l-1.987-1.987H513v9.313h11.641v-6.985h-4.657A1.164,1.164,0,0,1,519.162,164.487Zm0,0" transform="translate(-464.77 -147.366)" fill="#ff4591"/>
  </g>
</svg>
