<svg xmlns="http://www.w3.org/2000/svg" width="70.575" height="70.299" viewBox="0 0 70.575 70.299">
  <g id="web-development_12_" data-name="web-development (12)" transform="translate(0 -1)">
    <path id="Path_12547" data-name="Path 12547" d="M70.575,17.541V7.2a6.21,6.21,0,0,0-6.2-6.2H6.2A6.21,6.21,0,0,0,0,7.2V17.541ZM47.693,9.27H60.1a2.068,2.068,0,1,1,0,4.135H47.693a2.068,2.068,0,0,1,0-4.135Zm-20.676,0a2.068,2.068,0,1,1-2.068,2.068A2.068,2.068,0,0,1,27.017,9.27Zm-8.27,0a2.068,2.068,0,1,1-2.068,2.068A2.068,2.068,0,0,1,18.746,9.27Zm-8.27,0a2.068,2.068,0,1,1-2.068,2.068A2.068,2.068,0,0,1,10.476,9.27Z" fill="#821ffd"/>
    <path id="Path_12548" data-name="Path 12548" d="M0,151v43.42a6.21,6.21,0,0,0,6.2,6.2H64.372a6.21,6.21,0,0,0,6.2-6.2V151Zm24.173,29.4a2.068,2.068,0,1,1-2.583,3.229l-10.338-8.27a2.068,2.068,0,0,1,0-3.229l10.338-8.27a2.068,2.068,0,1,1,2.583,3.229l-8.32,6.656Zm19.217-20.315L30.985,189.032a2.068,2.068,0,0,1-3.8-1.629L39.59,158.456a2.068,2.068,0,0,1,3.8,1.629Zm15.932,15.273-10.338,8.27A2.068,2.068,0,1,1,46.4,180.4l8.32-6.656-8.32-6.656a2.068,2.068,0,1,1,2.583-3.229l10.338,8.27A2.068,2.068,0,0,1,59.323,175.358Z" transform="translate(0 -129.324)" fill="#ff4591"/>
  </g>
</svg>
